<svg xmlns="http://www.w3.org/2000/svg" version="1.1" xmlns:xlink="http://www.w3.org/1999/xlink" viewBox="0 0 8.127175570880988 7.199370732815877"><g transform="matrix(0.8493246390312064,0,0,0.8493246390312064,2.0889235512915545,3.2977504572323446)"><rect width="9.404387762855727" height="9.404387762855727" x="-2.377212191974739" y="-4.346693881427863" fill="#ffffff"></rect><g transform="matrix(1,0,0,1,0,0)"><g clip-path="url(#SvgjsClipPath76198)"><path d=" M -1.1 0.35550000000000015 L 0.6095791167773157 -2.605579270420569 L 4.02880644218159 -2.605579270420569 L 5.738276986052325 0.35550000000000015 L 4.02880644218159 3.3165792704205694 L 0.6095791167773157 3.3165792704205694 L -1.1 0.35550000000000015 Z" fill="#3682ae" transform="matrix(1,0,0,1,0,0)" fill-rule="nonzero"></path></g></g><g transform="matrix(1,0,0,1,0,0)"><path d=" M 0.025 0.010999999999999899 L 0.33 0.010999999999999899 L 0.33 0.029999999999999916 L 0.275 0.029999999999999916 L 0.275 0.692 L 0.33 0.692 L 0.33 0.711 L 0.025 0.711 L 0.025 0.692 L 0.08 0.692 L 0.08 0.029999999999999916 L 0.025 0.029999999999999916 L 0.025 0.010999999999999899 M 0.36498046875 0.23499999999999993 L 0.60598046875 0.23499999999999993 L 0.60598046875 0.32699999999999996 Q 0.63898046875 0.22499999999999998 0.7514804687500001 0.22499999999999998 Q 0.86398046875 0.22499999999999998 0.88798046875 0.33299999999999996 Q 0.9229804687500001 0.22499999999999998 1.0349804687500002 0.22499999999999998 Q 1.18198046875 0.22499999999999998 1.18198046875 0.39199999999999996 L 1.18198046875 0.693 L 1.23798046875 0.693 L 1.23798046875 0.711 L 0.96098046875 0.711 L 0.96098046875 0.693 L 0.99598046875 0.693 L 0.99598046875 0.36799999999999994 Q 0.99598046875 0.292 0.98298046875 0.27899999999999997 Q 0.97698046875 0.27299999999999996 0.96698046875 0.27299999999999996 Q 0.93798046875 0.27299999999999996 0.91598046875 0.31199999999999994 Q 0.89398046875 0.351 0.89398046875 0.411 L 0.89398046875 0.693 L 0.9299804687500001 0.693 L 0.9299804687500001 0.711 L 0.6729804687500001 0.711 L 0.6729804687500001 0.693 L 0.70798046875 0.693 L 0.70798046875 0.36799999999999994 Q 0.70798046875 0.292 0.6949804687500001 0.27899999999999997 Q 0.6889804687500001 0.27299999999999996 0.6789804687500001 0.27299999999999996 Q 0.65098046875 0.27299999999999996 0.6284804687500001 0.31549999999999995 Q 0.60598046875 0.358 0.60598046875 0.417 L 0.60598046875 0.693 L 0.64198046875 0.693 L 0.64198046875 0.711 L 0.36498046875 0.711 L 0.36498046875 0.693 L 0.41998046875 0.693 L 0.41998046875 0.25299999999999995 L 0.36498046875 0.25299999999999995 L 0.36498046875 0.23499999999999993 M 1.49298095703125 0.476 L 1.52198095703125 0.476 L 1.52198095703125 0.39899999999999997 Q 1.52198095703125 0.30399999999999994 1.51148095703125 0.27149999999999996 Q 1.50098095703125 0.23899999999999993 1.47098095703125 0.23899999999999993 Q 1.45298095703125 0.23899999999999993 1.43848095703125 0.24849999999999994 Q 1.42398095703125 0.25799999999999995 1.42398095703125 0.27449999999999997 Q 1.42398095703125 0.291 1.42998095703125 0.30799999999999994 L 1.45498095703125 0.30799999999999994 Q 1.46298095703125 0.32899999999999996 1.46298095703125 0.3585 Q 1.46298095703125 0.38799999999999996 1.43798095703125 0.4095 Q 1.41298095703125 0.43099999999999994 1.3749809570312501 0.43099999999999994 Q 1.28898095703125 0.43099999999999994 1.28898095703125 0.348 Q 1.28898095703125 0.22499999999999998 1.49798095703125 0.22499999999999998 Q 1.61698095703125 0.22499999999999998 1.66248095703125 0.26549999999999996 Q 1.70798095703125 0.30599999999999994 1.70798095703125 0.414 L 1.70798095703125 0.617 Q 1.70798095703125 0.6689999999999999 1.73698095703125 0.6689999999999999 Q 1.77098095703125 0.6689999999999999 1.77698095703125 0.566 L 1.79198095703125 0.567 Q 1.78798095703125 0.6549999999999999 1.75898095703125 0.688 Q 1.72998095703125 0.721 1.66398095703125 0.721 Q 1.54398095703125 0.721 1.52598095703125 0.647 Q 1.51298095703125 0.6849999999999999 1.48698095703125 0.703 Q 1.46098095703125 0.721 1.41098095703125 0.721 Q 1.26298095703125 0.721 1.26298095703125 0.6 Q 1.26298095703125 0.5289999999999999 1.31948095703125 0.5025 Q 1.37598095703125 0.476 1.49298095703125 0.476 M 1.45848095703125 0.6659999999999999 Q 1.46398095703125 0.6809999999999999 1.47948095703125 0.6809999999999999 Q 1.49498095703125 0.6809999999999999 1.50848095703125 0.6555 Q 1.52198095703125 0.63 1.52198095703125 0.585 L 1.52198095703125 0.492 L 1.51498095703125 0.492 Q 1.45298095703125 0.492 1.45298095703125 0.583 L 1.45298095703125 0.599 Q 1.45298095703125 0.651 1.45848095703125 0.6659999999999999 M 2.1979873046875 0.18299999999999994 L 2.2259873046875 0.16599999999999993 Q 2.2319873046875 0.1349999999999999 2.2019873046875 0.1349999999999999 Q 2.1589873046875 0.1349999999999999 2.1589873046875 0.20099999999999996 Q 2.1589873046875 0.22699999999999998 2.1659873046875 0.26099999999999995 Q 2.2419873046875 0.31199999999999994 2.2419873046875 0.39149999999999996 Q 2.2419873046875 0.471 2.1869873046875 0.5149999999999999 Q 2.1319873046875 0.5589999999999999 2.0379873046875 0.5589999999999999 Q 1.9989873046875 0.5589999999999999 1.9569873046875 0.5509999999999999 Q 1.9129873046875 0.579 1.9129873046875 0.593 Q 1.9129873046875 0.607 1.9769873046875 0.607 L 2.0789873046875 0.607 Q 2.3059873046875 0.607 2.3059873046875 0.77 Q 2.3059873046875 0.858 2.2374873046875 0.9095 Q 2.1689873046875 0.961 2.0239873046875 0.961 Q 1.7769873046875 0.961 1.7769873046875 0.854 Q 1.7769873046875 0.7959999999999999 1.8539873046875 0.774 L 1.9139873046875 0.8009999999999999 Q 1.9059873046875 0.83 1.9059873046875 0.856 Q 1.9059873046875 0.942 2.0339873046875 0.942 Q 2.1119873046875 0.942 2.1539873046875 0.913 Q 2.1959873046875 0.884 2.1959873046875 0.841 Q 2.1959873046875 0.7979999999999999 2.1704873046875 0.7835 Q 2.1449873046875 0.769 2.0689873046875 0.769 L 1.9719873046875 0.769 Q 1.8909873046875 0.769 1.8559873046875 0.742 Q 1.8209873046875 0.715 1.8209873046875 0.6755 Q 1.8209873046875 0.636 1.8459873046875 0.6094999999999999 Q 1.8709873046875 0.583 1.9349873046875 0.5439999999999999 Q 1.8189873046875 0.5109999999999999 1.8189873046875 0.39199999999999996 Q 1.8189873046875 0.31699999999999995 1.8729873046875 0.27099999999999996 Q 1.9269873046875001 0.22499999999999998 2.0349873046875 0.22499999999999998 Q 2.0999873046875 0.22499999999999998 2.1459873046875 0.24999999999999994 Q 2.1399873046874998 0.22299999999999998 2.1399873046874998 0.20099999999999996 Q 2.1399873046874998 0.1449999999999999 2.1699873046875 0.12 Q 2.1999873046875003 0.09499999999999997 2.2369873046875 0.09499999999999997 Q 2.2739873046875 0.09499999999999997 2.2964873046875 0.11449999999999994 Q 2.3189873046875 0.134 2.3189873046875 0.16799999999999993 Q 2.3189873046875 0.20199999999999996 2.3009873046875002 0.21849999999999997 Q 2.2829873046875 0.23499999999999993 2.2574873046875 0.23499999999999993 Q 2.2319873046875 0.23499999999999993 2.2154873046875 0.22149999999999997 Q 2.1989873046875 0.20799999999999996 2.1979873046875 0.18299999999999994 M 1.9859873046875 0.36999999999999994 L 1.9859873046875 0.42399999999999993 Q 1.9859873046875 0.491 1.9974873046875 0.5149999999999999 Q 2.0089873046875 0.5389999999999999 2.0324873046875 0.5389999999999999 Q 2.0559873046875 0.5389999999999999 2.0664873046875 0.5155 Q 2.0769873046875 0.492 2.0769873046875 0.419 L 2.0769873046875 0.36999999999999994 Q 2.0769873046875 0.292 2.0669873046875002 0.26749999999999996 Q 2.0569873046875 0.24299999999999994 2.0334873046875 0.24299999999999994 Q 2.0099873046875 0.24299999999999994 1.9979873046875 0.26849999999999996 Q 1.9859873046875 0.294 1.9859873046875 0.36999999999999994 M 2.3584306640625 0.6545 Q 2.2939306640625 0.588 2.2939306640625 0.4695 Q 2.2939306640625 0.351 2.3664306640625 0.288 Q 2.4389306640625 0.22499999999999998 2.5509306640625002 0.22499999999999998 Q 2.7779306640625 0.22499999999999998 2.7689306640625 0.45299999999999996 L 2.4869306640625 0.45299999999999996 L 2.4869306640625 0.492 Q 2.4869306640625 0.59 2.5119306640625 0.6399999999999999 Q 2.5369306640625 0.69 2.5989306640625 0.69 Q 2.7149306640625 0.69 2.7509306640625 0.566 L 2.7689306640625 0.569 Q 2.7499306640625 0.641 2.7004306640625 0.6809999999999999 Q 2.6509306640625 0.721 2.5519306640625 0.721 Q 2.4229306640625 0.721 2.3584306640625 0.6545 M 2.4879306640625 0.43299999999999994 L 2.5909306640625 0.43299999999999994 L 2.5909306640625 0.38399999999999995 Q 2.5909306640625 0.30299999999999994 2.5814306640625 0.27349999999999997 Q 2.5719306640625 0.24399999999999994 2.5434306640625 0.24399999999999994 Q 2.5149306640625 0.24399999999999994 2.5014306640625 0.27549999999999997 Q 2.4879306640625 0.30699999999999994 2.4879306640625 0.38399999999999995 L 2.4879306640625 0.43299999999999994 M 3.184921875 0.701 Q 3.233921875 0.701 3.247421875 0.6829999999999999 Q 3.260921875 0.6649999999999999 3.260921875 0.622 L 3.260921875 0.42799999999999994 L 3.196921875 0.42799999999999994 L 3.196921875 0.40599999999999997 L 3.484921875 0.40599999999999997 L 3.484921875 0.42799999999999994 L 3.445921875 0.42799999999999994 L 3.445921875 0.71 L 3.430921875 0.71 Q 3.412921875 0.6849999999999999 3.379921875 0.6849999999999999 Q 3.365921875 0.6849999999999999 3.296421875 0.703 Q 3.226921875 0.721 3.177921875 0.721 Q 3.014921875 0.721 2.925421875 0.633 Q 2.835921875 0.5449999999999999 2.835921875 0.36849999999999994 Q 2.835921875 0.19199999999999995 2.929421875 0.09599999999999997 Q 3.022921875 0 3.180921875 0 Q 3.241921875 0 3.303421875 0.015499999999999958 Q 3.3649218750000003 0.030999999999999917 3.374921875 0.030999999999999917 Q 3.384921875 0.030999999999999917 3.3899218749999998 0.026499999999999968 Q 3.394921875 0.02199999999999991 3.400921875 0.010999999999999899 L 3.411921875 0.010999999999999899 L 3.419921875 0.22799999999999998 L 3.401921875 0.22799999999999998 Q 3.352921875 0.131 3.303421875 0.0754999999999999 Q 3.253921875 0.019999999999999907 3.192921875 0.019999999999999907 Q 3.039921875 0.019999999999999907 3.039921875 0.31899999999999995 L 3.039921875 0.39799999999999996 Q 3.039921875 0.5479999999999999 3.077421875 0.6244999999999999 Q 3.114921875 0.701 3.184921875 0.701 M 3.5974443359375 0.6545 Q 3.5329443359375 0.588 3.5329443359375 0.4695 Q 3.5329443359375 0.351 3.6054443359375 0.288 Q 3.6779443359375 0.22499999999999998 3.7899443359375002 0.22499999999999998 Q 4.0169443359375 0.22499999999999998 4.0079443359375 0.45299999999999996 L 3.7259443359375 0.45299999999999996 L 3.7259443359375 0.492 Q 3.7259443359375 0.59 3.7509443359375 0.6399999999999999 Q 3.7759443359375 0.69 3.8379443359375 0.69 Q 3.9539443359375 0.69 3.9899443359375 0.566 L 4.0079443359375 0.569 Q 3.9889443359375 0.641 3.9394443359375 0.6809999999999999 Q 3.8899443359375 0.721 3.7909443359375 0.721 Q 3.6619443359375 0.721 3.5974443359375 0.6545 M 3.7269443359375 0.43299999999999994 L 3.8299443359375 0.43299999999999994 L 3.8299443359375 0.38399999999999995 Q 3.8299443359375 0.30299999999999994 3.8204443359375 0.27349999999999997 Q 3.8109443359375 0.24399999999999994 3.7824443359375 0.24399999999999994 Q 3.7539443359375 0.24399999999999994 3.7404443359375 0.27549999999999997 Q 3.7269443359375 0.30699999999999994 3.7269443359375 0.38399999999999995 L 3.7269443359375 0.43299999999999994 M 4.045935546875 0.23499999999999993 L 4.286935546875 0.23499999999999993 L 4.286935546875 0.32699999999999996 Q 4.302935546875 0.28099999999999997 4.335935546875 0.25299999999999995 Q 4.368935546875 0.22499999999999998 4.435935546875 0.22499999999999998 Q 4.590935546875 0.22499999999999998 4.590935546875 0.39199999999999996 L 4.590935546875 0.693 L 4.6469355468749995 0.693 L 4.6469355468749995 0.711 L 4.363935546875 0.711 L 4.363935546875 0.693 L 4.404935546875 0.693 L 4.404935546875 0.36799999999999994 Q 4.404935546875 0.30799999999999994 4.3969355468749995 0.2905 Q 4.388935546875 0.27299999999999996 4.367935546875 0.27299999999999996 Q 4.335935546875 0.27299999999999996 4.311435546875 0.31499999999999995 Q 4.286935546875 0.357 4.286935546875 0.417 L 4.286935546875 0.693 L 4.329935546875 0.693 L 4.329935546875 0.711 L 4.045935546875 0.711 L 4.045935546875 0.693 L 4.100935546875 0.693 L 4.100935546875 0.25299999999999995 L 4.045935546875 0.25299999999999995 L 4.045935546875 0.23499999999999993" fill="#ffffff" fill-rule="nonzero"></path></g><g transform="matrix(1,0,0,1,0,0)"></g></g><defs><clipPath id="SvgjsClipPath76198"><path d=" M -1.1 -2.605579270420569 h 6.84996337890625 v 5.922158540841139 h -6.84996337890625 Z"></path></clipPath></defs></svg>